<svg width="14" height="12" viewBox="0 0 14 12" fill="none" xmlns="http://www.w3.org/2000/svg">
<path d="M12.2287 0.911682H2.19143C1.26912 0.911682 0.518555 1.65545 0.518555 2.56941V11.9632H1.6338V10.3055H12.7863V11.9632H13.9015V2.56941C13.9015 1.65545 13.151 0.911682 12.2287 0.911682ZM2.19143 2.01684H12.2287C12.5365 2.01684 12.7863 2.26494 12.7863 2.56941V6.99003H11.671V6.43745C11.671 5.52349 10.9205 4.77972 9.99816 4.77972H8.32529C7.89703 4.77972 7.50614 4.93997 7.21004 5.203C6.91394 4.93997 6.52305 4.77972 6.09479 4.77972H4.42192C3.49961 4.77972 2.74905 5.52349 2.74905 6.43745V6.99003H1.6338V2.56941C1.6338 2.26494 1.88418 2.01684 2.19143 2.01684ZM6.65242 6.99003H3.8643V6.43745C3.8643 6.13298 4.11467 5.88488 4.42192 5.88488H6.09479C6.40204 5.88488 6.65242 6.13298 6.65242 6.43745V6.99003ZM7.76766 6.43745C7.76766 6.13298 8.01748 5.88488 8.32529 5.88488H9.99816C10.306 5.88488 10.5558 6.13298 10.5558 6.43745V6.99003H7.76766V6.43745ZM1.6338 9.20034V8.09518H12.7863V9.20034H1.6338Z" fill="#8E8E8E"/>
</svg>
