<svg width="32" height="26" viewBox="0 0 32 26" fill="none" xmlns="http://www.w3.org/2000/svg">
<path d="M13.7293 22.2002L13.7293 22.2002C13.6906 22.9985 13.3712 23.6603 12.7494 24.2105C12.1268 24.7615 11.3995 25.0241 10.5402 25.0008L3.46324 24.809C2.60397 24.7857 1.91024 24.485 1.34921 23.9086C0.789349 23.3332 0.535492 22.6627 0.574223 21.865L0.0748104 21.8408L0.574224 21.865L1.17403 9.50059C1.22974 8.35261 1.51373 7.26857 2.02699 6.24398C2.55726 5.19965 3.24123 4.30909 4.07881 3.56784C4.9169 2.82618 5.89504 2.24606 7.01837 1.82917L7.02064 1.82832C8.15028 1.40284 9.3199 1.20665 10.5333 1.23956L10.5468 0.739743L10.5333 1.23956L11.7128 1.27154L11.7128 1.27154C11.9021 1.27666 12.0494 1.34123 12.1813 1.47669C12.3123 1.61136 12.3596 1.7448 12.3519 1.90343L12.3519 1.9035L12.2428 4.15151C12.2428 4.15152 12.2428 4.15153 12.2428 4.15154C12.2351 4.31125 12.1735 4.44841 12.0223 4.58223C11.8709 4.71628 11.7116 4.77324 11.5217 4.7681L10.3423 4.73613C10.3423 4.73613 10.3422 4.73613 10.3422 4.73613C8.91486 4.69736 7.65797 5.15003 6.59773 6.0883C5.53681 7.02717 4.96021 8.19883 4.89315 9.57996L4.89315 9.58006L4.86597 10.142C4.83649 10.7494 5.04066 11.2871 5.4651 11.7232C5.88848 12.1583 6.42404 12.3834 7.03924 12.4C7.03925 12.4 7.03926 12.4 7.03927 12.4L11.1675 12.512L11.1675 12.512C12.0267 12.5352 12.7205 12.8358 13.2814 13.4123C13.8413 13.9876 14.0952 14.6582 14.0565 15.456L13.7293 22.2002ZM30.5695 15.9034L30.5695 15.9035L30.2423 22.6477C30.2423 22.6477 30.2423 22.6477 30.2423 22.6477C30.2035 23.446 29.8841 24.1079 29.2623 24.6581L29.2623 24.6581C28.6399 25.209 27.9126 25.4716 27.0531 25.4483C27.0531 25.4483 27.0531 25.4483 27.0531 25.4483L19.9762 25.2566C19.1169 25.2332 18.4231 24.9326 17.8622 24.3561C17.3023 23.7807 17.0484 23.1102 17.0871 22.3126L17.0871 22.3126L17.687 9.94812L17.687 9.94809C17.7427 8.80011 18.0267 7.71606 18.5399 6.69143C19.0702 5.64716 19.7543 4.75659 20.5918 4.01535C21.4298 3.27373 22.4079 2.69361 23.5313 2.27673L23.5335 2.27587C24.6632 1.85039 25.8329 1.65417 27.0463 1.68708L28.2257 1.71909L28.2257 1.71909C28.4151 1.72421 28.5624 1.78881 28.6941 1.92414L28.6941 1.92419C28.8252 2.05886 28.8725 2.19233 28.8649 2.35101C28.8649 2.35104 28.8649 2.35107 28.8649 2.3511L28.7558 4.59907L28.7557 4.59923C28.748 4.75877 28.6866 4.89587 28.5353 5.02974L28.5353 5.02978C28.3838 5.16384 28.2246 5.22076 28.0347 5.21562L26.8552 5.18365C25.4278 5.14491 24.1709 5.59758 23.1106 6.53586C22.0497 7.47472 21.4731 8.64639 21.4061 10.0275L21.3789 10.5895C21.3789 10.5896 21.3789 10.5896 21.3789 10.5896C21.3494 11.1969 21.5536 11.7346 21.978 12.1708L21.9781 12.1708C22.4015 12.6057 22.9369 12.8309 23.5522 12.8476L27.6805 12.9595L27.694 12.4597L27.6805 12.9595C28.5396 12.9828 29.2334 13.2834 29.7943 13.8598L29.7943 13.8598C30.3543 14.4352 30.6082 15.1058 30.5695 15.9034Z" fill="white" stroke="#F37952"/>
</svg>
