<svg width="15" height="15" viewBox="0 0 12 12" fill="none" xmlns="http://www.w3.org/2000/svg">
<path d="M11.2354 6.43745H2.61757V2.92105C2.61757 2.65459 2.72438 2.39905 2.91452 2.21063C3.10466 2.02222 3.36254 1.91637 3.63143 1.91637H4.64529C4.84379 1.91647 5.03789 1.97432 5.20352 2.08273C5.36915 2.19113 5.49902 2.34534 5.57703 2.52621C5.23179 2.64662 4.93257 2.86988 4.72039 3.1654C4.50821 3.46092 4.39344 3.81423 4.39182 4.17691V4.93042C4.39182 5.06365 4.44523 5.19143 4.5403 5.28563C4.63537 5.37984 4.76431 5.43277 4.89875 5.43277H7.43341C7.56785 5.43277 7.69679 5.37984 7.79186 5.28563C7.88693 5.19143 7.94034 5.06365 7.94034 4.93042V4.17691C7.93874 3.79058 7.80879 3.41552 7.57055 3.10971C7.33232 2.8039 6.99907 2.58436 6.62232 2.48502C6.5223 2.03915 6.27197 1.64035 5.91259 1.35435C5.5532 1.06835 5.10622 0.912217 4.64529 0.911682H3.63143C3.09364 0.911682 2.57788 1.12338 2.19761 1.50021C1.81734 1.87704 1.60371 2.38813 1.60371 2.92105V6.43745H1.09677C0.962328 6.43745 0.833388 6.49038 0.73832 6.58459C0.643252 6.67879 0.589844 6.80657 0.589844 6.9398C0.589844 7.07303 0.643252 7.2008 0.73832 7.29501C0.833388 7.38921 0.962328 7.44214 1.09677 7.44214H1.60371V9.45151C1.605 9.76209 1.70311 10.0647 1.88459 10.3179C2.06607 10.5711 2.32207 10.7626 2.61757 10.8661V11.4609C2.61757 11.5941 2.67098 11.7219 2.76604 11.8161C2.86111 11.9103 2.99005 11.9632 3.1245 11.9632C3.25894 11.9632 3.38788 11.9103 3.48295 11.8161C3.57802 11.7219 3.63143 11.5941 3.63143 11.4609V10.9585H8.70074V11.4609C8.70074 11.5941 8.75414 11.7219 8.84921 11.8161C8.94428 11.9103 9.07322 11.9632 9.20767 11.9632C9.34211 11.9632 9.47105 11.9103 9.56612 11.8161C9.66119 11.7219 9.7146 11.5941 9.7146 11.4609V10.8661C10.0101 10.7626 10.2661 10.5711 10.4476 10.3179C10.6291 10.0647 10.7272 9.76209 10.7285 9.45151V7.44214H11.2354C11.3698 7.44214 11.4988 7.38921 11.5938 7.29501C11.6889 7.2008 11.7423 7.07303 11.7423 6.9398C11.7423 6.80657 11.6889 6.67879 11.5938 6.58459C11.4988 6.49038 11.3698 6.43745 11.2354 6.43745ZM6.92648 4.17691V4.42808H5.40569V4.17691C5.40569 3.97707 5.4858 3.78541 5.6284 3.6441C5.771 3.50278 5.96441 3.4234 6.16608 3.4234C6.36775 3.4234 6.56116 3.50278 6.70376 3.6441C6.84636 3.78541 6.92648 3.97707 6.92648 4.17691ZM9.7146 9.45151C9.7146 9.58474 9.66119 9.71251 9.56612 9.80672C9.47105 9.90093 9.34211 9.95385 9.20767 9.95385H3.1245C2.99005 9.95385 2.86111 9.90093 2.76604 9.80672C2.67098 9.71251 2.61757 9.58474 2.61757 9.45151V7.44214H9.7146V9.45151Z" fill="#8E8E8E"/>
</svg>
